<?xml version="1.0" standalone="no"?><!DOCTYPE svg PUBLIC "-//W3C//DTD SVG 1.1//EN" "http://www.w3.org/Graphics/SVG/1.1/DTD/svg11.dtd"><svg xmlns="http://www.w3.org/2000/svg" viewBox="0 0 650 400" version="1.1"><clipPath id="box"><rect x="0" y="0" width="650" height="400" style="fill:none;stroke:none;" /></clipPath><g clip-path="url(#box)"><rect x="0.00" y="0.00" width="650.00" height="400.00" style="fill:#FFFFFF;stroke:none;" /><path d="M-10.00 200.00 L-0.25 262.16 L0.75 262.15 L2.75 262.14 L4.75 262.13 L6.75 262.12 L8.75 262.10 L10.75 262.09 L12.75 262.08 L14.75 262.06 L16.75 262.05 L18.75 262.03 L20.75 262.02 L22.75 262.00 L24.75 261.99 L26.75 261.97 L28.75 261.95 L30.75 261.94 L32.75 261.92 L34.75 261.90 L36.75 261.88 L38.75 261.86 L40.75 261.84 L42.75 261.82 L44.75 261.79 L46.75 261.77 L48.75 261.75 L50.75 261.72 L52.75 261.70 L54.75 261.67 L56.75 261.65 L58.75 261.62 L60.75 261.59 L62.75 261.56 L64.75 261.53 L66.75 261.50 L68.75 261.46 L70.75 261.43 L72.75 261.40 L74.75 261.36 L76.75 261.32 L78.75 261.28 L80.75 261.24 L82.75 261.20 L84.75 261.16 L86.75 261.12 L88.75 261.07 L90.75 261.03 L92.75 260.98 L94.75 260.93 L96.75 260.88 L98.75 260.83 L100.75 260.77 L102.75 260.72 L104.75 260.66 L106.75 260.60 L108.75 260.54 L110.75 260.47 L112.75 260.41 L114.75 260.34 L116.75 260.27 L118.75 260.19 L120.75 260.12 L122.75 260.04 L124.75 259.96 L126.75 259.88 L128.75 259.79 L130.75 259.71 L132.75 259.62 L134.75 259.52 L136.75 259.43 L138.75 259.33 L140.75 259.22 L142.75 259.12 L144.75 259.01 L146.75 258.89 L148.75 258.77 L150.75 258.65 L152.75 258.53 L154.75 258.40 L156.75 258.27 L158.75 258.13 L160.75 257.99 L162.75 257.84 L164.75 257.69 L166.75 257.53 L168.75 257.37 L170.75 257.20 L172.75 257.03 L174.75 256.85 L176.75 256.67 L178.75 256.48 L180.75 256.28 L182.75 256.08 L184.75 255.87 L186.75 255.66 L188.75 255.43 L190.75 255.21 L192.75 254.97 L194.75 254.72 L196.75 254.47 L198.75 254.21 L200.75 253.94 L202.75 253.66 L204.75 253.37 L206.75 253.08 L208.75 252.77 L210.75 252.45 L212.75 252.13 L214.75 251.79 L216.75 251.44 L218.75 251.08 L220.75 250.71 L222.75 250.33 L224.75 249.93 L226.75 249.52 L228.75 249.10 L230.75 248.67 L232.75 248.22 L234.75 247.75 L236.75 247.27 L238.75 246.78 L240.75 246.26 L242.75 245.74 L244.75 245.19 L246.75 244.63 L248.75 244.05 L250.75 243.45 L252.75 242.83 L254.75 242.19 L256.75 241.53 L258.75 240.85 L260.75 240.14 L262.75 239.42 L264.75 238.66 L266.75 237.89 L268.75 237.09 L270.75 236.26 L272.75 235.41 L274.75 234.53 L276.75 233.62 L278.75 232.68 L280.75 231.71 L282.75 230.71 L284.75 229.68 L286.68 228.64 L288.56 227.61 L290.38 226.58 L292.14 225.55 L293.86 224.53 L295.53 223.50 L297.15 222.47 L298.73 221.45 L300.27 220.42 L301.78 219.40 L303.24 218.37 L304.68 217.35 L306.08 216.33 L307.45 215.30 L308.79 214.28 L310.10 213.26 L311.38 212.24 L312.63 211.22 L313.87 210.20 L315.07 209.18 L316.26 208.16 L317.42 207.14 L318.56 206.12 L319.68 205.10 L320.77 204.09 L321.85 203.07 L322.91 202.05 L323.96 201.03 L324.98 200.02 L325.99 199.01 L326.99 198.01 L327.99 197.01 L328.99 196.01 L329.99 195.01 L330.99 194.01 L331.99 193.01 L332.99 192.01 L333.99 191.01 L334.99 190.01 L335.99 189.01 L336.99 188.01 L337.99 187.01 L338.99 186.01 L339.99 185.01 L340.99 184.01 L341.99 183.01 L342.99 182.01 L343.99 181.01 L344.99 180.01 L345.99 179.01 L346.99 178.01 L347.99 177.01 L348.99 176.01 L349.99 175.01 L350.99 174.01 L351.99 173.01 L352.99 172.01 L353.99 171.01 L354.99 170.01 L355.99 169.01 L356.99 168.01 L357.99 167.01 L358.99 166.01 L359.99 165.01 L360.99 164.01 L361.99 163.01 L362.99 162.01 L363.99 161.01 L364.99 160.01 L365.99 159.01 L366.99 158.01 L367.99 157.01 L368.99 156.01 L369.99 155.01 L370.99 154.01 L371.99 153.01 L372.99 152.01 L373.99 151.01 L374.99 150.01 L375.99 149.01 L376.99 148.01 L377.99 147.01 L378.99 146.01 L379.99 145.01 L380.99 144.01 L381.99 143.01 L382.99 142.01 L383.99 141.01 L384.99 140.01 L385.99 139.01 L386.99 138.01 L387.99 137.01 L388.99 136.01 L389.99 135.01 L390.99 134.01 L391.99 133.01 L392.99 132.01 L393.99 131.01 L394.99 130.01 L395.99 129.01 L396.99 128.01 L397.99 127.01 L398.99 126.01 L399.99 125.01 L400.99 124.01 L401.99 123.01 L402.99 122.01 L403.99 121.01 L404.99 120.01 L405.99 119.01 L406.99 118.01 L407.99 117.01 L408.99 116.01 L409.99 115.01 L410.99 114.01 L411.99 113.01 L412.99 112.01 L413.99 111.01 L414.99 110.01 L415.99 109.01 L416.99 108.01 L417.99 107.01 L418.99 106.01 L419.99 105.01 L420.99 104.01 L421.99 103.01 L422.99 102.01 L423.99 101.01 L424.99 100.01 L425.99 99.01 L426.99 98.01 L427.99 97.01 L428.99 96.01 L429.99 95.01 L430.99 94.01 L431.99 93.01 L432.99 92.01 L433.99 91.01 L434.99 90.01 L435.99 89.01 L436.99 88.01 L437.99 87.01 L438.99 86.01 L439.99 85.01 L440.99 84.01 L441.99 83.01 L442.99 82.01 L443.99 81.01 L444.99 80.01 L445.99 79.01 L446.99 78.01 L447.99 77.01 L448.99 76.01 L449.99 75.01 L450.99 74.01 L451.99 73.01 L452.99 72.01 L453.99 71.01 L454.99 70.01 L455.99 69.01 L456.99 68.01 L457.99 67.01 L458.99 66.01 L459.99 65.01 L460.99 64.01 L461.99 63.01 L462.99 62.01 L463.99 61.01 L464.99 60.01 L465.99 59.01 L466.99 58.01 L467.99 57.01 L468.99 56.01 L469.99 55.01 L470.99 54.01 L471.99 53.01 L472.99 52.01 L473.99 51.01 L474.99 50.01 L475.99 49.01 L476.99 48.01 L477.99 47.01 L478.99 46.01 L479.99 45.01 L480.99 44.01 L481.99 43.01 L482.99 42.01 L483.99 41.01 L484.99 40.01 L485.99 39.01 L486.99 38.01 L487.99 37.01 L488.99 36.01 L489.99 35.01 L490.99 34.01 L491.99 33.01 L492.99 32.01 L493.99 31.01 L494.99 30.01 L495.99 29.01 L496.99 28.01 L497.99 27.01 L498.99 26.01 L499.99 25.01 L500.99 24.01 L501.99 23.01 L502.99 22.01 L503.99 21.01 L504.99 20.01 L505.99 19.01 L506.99 18.01 L507.99 17.01 L508.99 16.01 L509.99 15.01 L510.99 14.01 L511.99 13.01 L512.99 12.01 L513.99 11.01 L514.99 10.01 L515.99 9.01 L516.99 8.01 L517.99 7.01 L518.99 6.01 L519.99 5.01 L520.99 4.01 L521.99 3.01 L522.99 2.01 L523.99 1.01 L524.99 0.01 L525.99 -0.99 " style="fill:none;stroke:#000000;stroke-width:1;" /></g></svg>